<svg width="24" height="24" viewBox="0 0 24 24" fill="none" xmlns="http://www.w3.org/2000/svg">
<path d="M20 2.75C19.9999 2.63317 19.9725 2.51797 19.92 2.41359C19.8676 2.30922 19.7914 2.21854 19.6977 2.1488C19.6039 2.07906 19.4952 2.03218 19.3802 2.0119C19.2651 1.99162 19.1469 1.9985 19.035 2.032L9.03498 5.032C8.88045 5.07823 8.74495 5.17306 8.64857 5.3024C8.5522 5.43174 8.50009 5.5887 8.49998 5.75V15.627C7.85127 15.1753 7.06877 14.9566 6.27989 15.0063C5.491 15.0561 4.74218 15.3714 4.15534 15.9009C3.56849 16.4305 3.17819 17.1431 3.04796 17.9227C2.91773 18.7024 3.05524 19.5032 3.43812 20.1947C3.821 20.8862 4.42669 21.4278 5.15658 21.7312C5.88648 22.0347 6.69759 22.0821 7.45787 21.8658C8.21815 21.6495 8.88283 21.1822 9.34369 20.54C9.80455 19.8978 10.0345 19.1185 9.99598 18.329C9.99869 18.3028 10 18.2764 9.99998 18.25V10.308L18.5 7.758V13.628C17.8513 13.1763 17.0688 12.9576 16.2799 13.0073C15.491 13.0571 14.7422 13.3724 14.1553 13.9019C13.5685 14.4315 13.1782 15.1441 13.048 15.9237C12.9177 16.7034 13.0552 17.5042 13.4381 18.1957C13.821 18.8872 14.4267 19.4288 15.1566 19.7322C15.8865 20.0357 16.6976 20.0831 17.4579 19.8668C18.2182 19.6505 18.8828 19.1832 19.3437 18.541C19.8046 17.8988 20.0345 17.1195 19.996 16.33C19.9987 16.3034 20 16.2767 20 16.25V2.75Z" fill="black"/>
</svg>
