<svg width="24" height="24" viewBox="0 0 24 24" fill="none" xmlns="http://www.w3.org/2000/svg">
<path d="M15 4.25V19.746C15 20.825 13.726 21.397 12.92 20.68L8.428 16.686C8.29072 16.5642 8.11353 16.4969 7.93 16.497H4.25C3.95453 16.497 3.66194 16.4388 3.38896 16.3257C3.11598 16.2127 2.86794 16.0469 2.65901 15.838C2.45008 15.6291 2.28434 15.381 2.17127 15.108C2.0582 14.8351 2 14.5425 2 14.247V9.749C2.00027 9.15243 2.23744 8.58039 2.65936 8.15865C3.08129 7.73691 3.65344 7.5 4.25 7.5H7.93C8.11366 7.49978 8.29086 7.43217 8.428 7.31L12.919 3.317C13.726 2.6 15 3.172 15 4.25ZM18.992 5.898C19.1518 5.7796 19.3521 5.72952 19.5488 5.75878C19.7455 5.78803 19.9226 5.89422 20.041 6.054C21.3164 7.77416 22.0033 9.8596 22 12.001C22.0028 14.1421 21.3155 16.2272 20.04 17.947C19.9203 18.1034 19.744 18.2065 19.549 18.2339C19.354 18.2614 19.156 18.2111 18.9978 18.0939C18.8396 17.9766 18.7338 17.8018 18.7034 17.6073C18.6729 17.4127 18.7202 17.214 18.835 17.054C19.919 15.5926 20.5029 13.8206 20.5 12.001C20.5031 10.1811 19.9192 8.40869 18.835 6.947C18.7763 6.86778 18.7337 6.77776 18.7099 6.68208C18.686 6.58641 18.6812 6.48696 18.6957 6.38944C18.7103 6.29191 18.744 6.19821 18.7948 6.11371C18.8457 6.02922 18.9127 5.95557 18.992 5.897V5.898ZM17.143 8.37C17.2296 8.32303 17.3246 8.29358 17.4226 8.28334C17.5206 8.27309 17.6196 8.28226 17.7141 8.3103C17.8085 8.33835 17.8965 8.38473 17.973 8.44679C18.0495 8.50885 18.1131 8.58537 18.16 8.672C18.696 9.662 19 10.797 19 12.001C19.0017 13.163 18.7129 14.307 18.16 15.329C18.1131 15.4157 18.0496 15.4923 17.9731 15.5544C17.8967 15.6165 17.8087 15.663 17.7143 15.6911C17.6198 15.7193 17.5208 15.7285 17.4227 15.7184C17.3247 15.7082 17.2297 15.6789 17.143 15.632C17.0563 15.5851 16.9797 15.5216 16.9176 15.4451C16.8555 15.3687 16.809 15.2807 16.7809 15.1862C16.7527 15.0918 16.7435 14.9928 16.7536 14.8947C16.7638 14.7967 16.7931 14.7017 16.84 14.615C17.2742 13.8122 17.5011 12.9137 17.5 12.001C17.5 11.053 17.26 10.163 16.84 9.386C16.7455 9.21107 16.7244 9.00579 16.7812 8.81528C16.838 8.62477 16.9682 8.46461 17.143 8.37V8.37Z" fill="black"/>
</svg>
