<svg width="375" height="765" viewBox="0 0 375 765" fill="none" xmlns="http://www.w3.org/2000/svg">
<rect x="1.5" y="1.5" width="372" height="762" fill="white"/>
<rect width="375" height="722" fill="white" fill-opacity="0.5"/>
<rect width="375" height="58" fill="black"/>
<path d="M178.286 7.22345V15.9616H172.439L172.98 7.22345H178.286Z" fill="white"/>
<path d="M171.849 15.9616H166V7.22345H171.35L171.849 15.9616Z" fill="white"/>
<path d="M188.336 11.1814V15.9616H184.45V11.6305C184.45 11.1361 184.367 10.9548 184.074 10.9548H184.033C183.74 10.9548 183.656 11.1361 183.656 11.6305V15.9605H179.77V11.1814C179.77 7.94444 180.482 7 183.238 7H184.868C187.627 7 188.336 7.94444 188.336 11.1814Z" fill="white"/>
<path d="M198.387 11.4049V15.9616H194.501V11.855C194.501 11.3606 194.418 11.1814 194.125 11.1814H193.707V15.9616H189.821V7.22345H194.919C197.678 7.22345 198.387 8.16789 198.387 11.4049Z" fill="white"/>
<path d="M207.999 11.1814V15.9616H204.113V11.6305C204.113 11.1361 204.029 10.9548 203.736 10.9548H203.695C203.402 10.9548 203.319 11.1361 203.319 11.6305V15.9605H199.433V11.1814C199.433 7.94444 200.144 7 202.9 7H204.531C207.29 7 207.999 7.94444 207.999 11.1814Z" fill="white"/>
<path d="M173.272 48.2906H170.598L169.845 36.0593C169.678 33.5412 169.469 30.438 169.302 27.3802C169.345 30.5276 169.386 33.4063 169.386 36.0593V48.2906H166V16.8143H171.349L171.892 26.3019C171.975 28.0105 172.06 29.8994 172.143 31.608C172.226 29.8994 172.268 28.0105 172.394 26.3019L172.979 16.8143H178.286V48.2917H174.484V36.0593C174.484 33.4063 174.526 30.5287 174.567 27.3802C174.4 30.438 174.191 33.5412 174.025 36.0593L173.272 48.2906Z" fill="white"/>
<path d="M179.77 20.7713C179.77 17.5332 180.48 16.5898 183.239 16.5898H184.868C187.627 16.5898 188.337 17.5343 188.337 20.7713V44.3337C188.337 47.5718 187.627 48.5151 184.868 48.5151H183.239C180.48 48.5151 179.77 47.5707 179.77 44.3337V20.7713ZM184.45 21.2203C184.45 20.726 184.367 20.5457 184.074 20.5457H184.032C183.739 20.5457 183.655 20.726 183.655 21.2203V43.8836C183.655 44.378 183.739 44.5582 184.032 44.5582H184.074C184.367 44.5582 184.45 44.378 184.45 43.8836V21.2203Z" fill="white"/>
<path d="M199.433 20.7713C199.433 17.5332 200.143 16.5898 202.902 16.5898H204.531C207.29 16.5898 208 17.5343 208 20.7713V44.3337C208 47.5718 207.29 48.5151 204.531 48.5151H202.902C200.143 48.5151 199.433 47.5707 199.433 44.3337V20.7713V20.7713ZM204.113 21.2203C204.113 20.726 204.029 20.5457 203.736 20.5457H203.694C203.401 20.5457 203.318 20.726 203.318 21.2203V43.8836C203.318 44.378 203.401 44.5582 203.694 44.5582H203.736C204.029 44.5582 204.113 44.378 204.113 43.8836V21.2203Z" fill="white"/>
<path d="M194.466 48.2263H198.306V45.2349L198.328 36.4451C198.328 33.9269 197.909 32.8033 196.488 32.3975C197.909 31.9927 198.328 30.8681 198.328 28.3952V20.9315C198.328 17.6945 197.616 16.749 194.859 16.749L189.725 16.7964L189.76 48.2263H193.647V34.377H193.94C194.274 34.377 194.442 34.6458 194.442 35.1855L194.466 48.2042V48.2263ZM194.44 29.7444C194.44 30.2388 194.356 30.419 194.064 30.419H193.646V20.7069H194.064C194.356 20.7069 194.44 20.8861 194.44 21.3805V29.7444Z" fill="white"/>
<rect x="1.5" y="1.5" width="372" height="762" stroke="black" stroke-width="3"/>
</svg>
